<?xml version="1.0" standalone="no"?>
<svg viewBox="0 0 200 200" xmlns="http://www.w3.org/2000/svg">
  <path fill="#E1EBFF" d="M42.6,-61.4C53.1,-51.1,57.8,-35.7,62.7,-20.5C67.5,-5.2,72.4,10,70.4,24.9C68.4,39.9,59.4,54.6,46.5,62.5C33.6,70.4,16.8,71.4,0.5,70.8C-15.8,70.1,-31.6,67.6,-45.1,60C-58.7,52.3,-70,39.3,-77.9,23.4C-85.8,7.4,-90.3,-11.7,-85.1,-27.7C-80,-43.7,-65.3,-56.7,-49.5,-65.2C-33.7,-73.8,-16.9,-77.9,-0.4,-77.4C16.1,-76.8,32.2,-71.7,42.6,-61.4Z" transform="translate(100 100)" />
</svg>
